<svg xmlns="http://www.w3.org/2000/svg" xmlns:xlink="http://www.w3.org/1999/xlink" version="1.1" fill="#036672" x="0px" y="0px" viewBox="0 0 30 37.5" xml:space="preserve"><g transform="translate(-450 -260)"><path xmlns="http://www.w3.org/2000/svg" xmlns:xlink="http://www.w3.org/1999/xlink" d="M469.911,267.813l0.732,0.683l2.832-3.047c-0.087,5.094-0.871,9.124-2.483,12.209   c0.001-0.053,0.008-0.104,0.008-0.158c0-3.032-2.468-5.5-5.5-5.5s-5.5,2.468-5.5,5.5s2.468,5.5,5.5,5.5   c0.193,0,0.384-0.011,0.571-0.03c-3.372,2.077-7.979,3.03-14.071,3.03v1c15.672,0,22.228-6.292,22.477-21.605l2.881,3.101   l0.732-0.683l-4.089-4.397L469.911,267.813z M461,277.5c0-2.481,2.019-4.5,4.5-4.5s4.5,2.019,4.5,4.5s-2.019,4.5-4.5,4.5   S461,279.981,461,277.5z"/></g></svg>
