<?xml version="1.0" encoding="UTF-8" standalone="no" ?>
<!DOCTYPE svg PUBLIC "-//W3C//DTD SVG 1.1//EN" "http://www.w3.org/Graphics/SVG/1.1/DTD/svg11.dtd">
<svg xmlns="http://www.w3.org/2000/svg" xmlns:xlink="http://www.w3.org/1999/xlink" version="1.1" width="1080" height="1080" viewBox="0 0 1080 1080" xml:space="preserve">
<desc>Created with Fabric.js 5.2.4</desc>
<defs>
</defs>
<g transform="matrix(1 0 0 1 540 540)" id="c80dc10f-ddec-48fa-87a8-5b692d064d95"  >
<rect style="stroke: none; stroke-width: 1; stroke-dasharray: none; stroke-linecap: butt; stroke-dashoffset: 0; stroke-linejoin: miter; stroke-miterlimit: 4; fill: rgb(255,255,255); fill-rule: nonzero; opacity: 1; visibility: hidden;" vector-effect="non-scaling-stroke"  x="-540" y="-540" rx="0" ry="0" width="1080" height="1080" />
</g>
<g transform="matrix(1 0 0 1 540 540)" id="cc5c312a-dbef-4409-b7b2-1d1294fc200f"  >
</g>
<g transform="matrix(1 0 0 1 540 540)"  >
<g style="" vector-effect="non-scaling-stroke"   >
		<g transform="matrix(1 0 0 1 -25.57 8.11)"  >
<path style="stroke: none; stroke-width: 1; stroke-dasharray: none; stroke-linecap: butt; stroke-dashoffset: 0; stroke-linejoin: miter; stroke-miterlimit: 4; fill: rgb(15,118,110); fill-rule: nonzero; opacity: 1;" vector-effect="non-scaling-stroke"  transform=" translate(-168.37, -116.32)" d="M 336.738 41.644 C 289.8 25.773 238.017 36.6 196.683 62.528 C 176.352 11.1 116.874 4.4 74.468 33.11 C 40.41 54.5 16.937 90.286 7.75 129.167 C 1.956 150.233 -0.972 172.037 0.29 193.893 C 1.032 196.593 -1.399 202.849 3.011 202.636 C 8.492 200.83599999999998 4.157 188.316 5.211 183.304 C 4.836 164.279 8.746 145.481 13.901 127.257 C 23.314 91.752 45.329 59.315 76.75 39.819 C 116.824 13.249000000000002 170.188 19.106 188.82 67.772 C 146.60899999999998 93.97200000000001 92.128 188.017 158.12 215.933 C 230.176 224.59799999999998 216.659 113.865 200.337 71.179 C 240.793 46.055 289.671 37.473 336.738 41.644 Z M 171.53 206.475 C 150.835 207.29399999999998 136.052 184.08499999999998 138.448 164.953 C 142.834 129.583 163.285 96.934 192.387 76.553 C 203.241 110.076 219.891 197.055 171.53 206.475 Z" stroke-linecap="round" />
</g>
		<g transform="matrix(1 0 0 1 148.95 -62.57)"  >
<path style="stroke: none; stroke-width: 1; stroke-dasharray: none; stroke-linecap: butt; stroke-dashoffset: 0; stroke-linejoin: miter; stroke-miterlimit: 4; fill: rgb(15,118,110); fill-rule: nonzero; opacity: 1;" vector-effect="non-scaling-stroke"  transform=" translate(-342.88, -45.64)" d="M 305.035 1.592 C 303.38800000000003 -0.9630000000000001 298.22900000000004 -0.4079999999999999 297.89300000000003 2.992 C 299.33700000000005 8.898 315.314 10.792 320.87600000000003 13.341000000000001 C 341.21200000000005 18.626 360.95000000000005 26.141000000000002 377.05100000000004 40.025000000000006 C 360.63200000000006 55.385000000000005 345.25100000000003 71.912 333.60800000000006 91.25800000000001 C 333.6054861932859 91.25966747073326 333.60397493718557 91.26248343194305 333.60397493718557 91.26550000000002 C 333.60397493718557 91.26851656805697 333.6054861932859 91.27133252926676 333.60800000000006 91.27300000000001 C 345.50800000000004 80.03300000000002 357.37500000000006 68.73500000000001 369.95400000000006 58.24200000000001 C 376.0250000000001 51.96300000000001 386.45400000000006 47.161000000000016 387.87300000000005 37.899000000000015 C 370.062 12.108 332.389 11.909 305.035 1.592 Z" stroke-linecap="round" />
</g>
</g>
</g>
<g transform="matrix(NaN NaN NaN NaN 0 0)"  >
<g style=""   >
</g>
</g>
</svg>