<?xml version="1.0" encoding="UTF-8" standalone="no" ?>
<!DOCTYPE svg PUBLIC "-//W3C//DTD SVG 1.1//EN" "http://www.w3.org/Graphics/SVG/1.1/DTD/svg11.dtd">
<svg xmlns="http://www.w3.org/2000/svg" xmlns:xlink="http://www.w3.org/1999/xlink" version="1.1" width="1080" height="1080" viewBox="0 0 1080 1080" xml:space="preserve">
<desc>Created with Fabric.js 5.2.4</desc>
<defs>
</defs>
<g transform="matrix(1 0 0 1 540 540)" id="f85d7472-0f4c-4167-b214-9812c2c5590a"  >
<rect style="stroke: none; stroke-width: 1; stroke-dasharray: none; stroke-linecap: butt; stroke-dashoffset: 0; stroke-linejoin: miter; stroke-miterlimit: 4; fill: rgb(255,255,255); fill-rule: nonzero; opacity: 1; visibility: hidden;" vector-effect="non-scaling-stroke"  x="-540" y="-540" rx="0" ry="0" width="1080" height="1080" />
</g>
<g transform="matrix(1 0 0 1 540 540)" id="e0a012e3-5c2b-42d4-8830-d16a0cf04837"  >
</g>
<g transform="matrix(1 0 0 1 540 540)" id="2e701be9-74fb-425e-bd3b-05bb93af0f67"  >
<path style="stroke: rgb(15,118,110); stroke-width: 0; stroke-dasharray: none; stroke-linecap: butt; stroke-dashoffset: 0; stroke-linejoin: miter; stroke-miterlimit: 4; fill: rgb(15,118,110); fill-rule: nonzero; opacity: 1;" vector-effect="non-scaling-stroke"  transform=" translate(-150.33, -69.69)" d="M 300.666 60.394 L 230.036 61.489 L 230.281 61.559 C 242.68086303172228 65.1025696943438 254.04066088494528 71.5904030237199 263.393 80.47 C 255.23343572103977 86.99390480857204 246.45102495673265 92.69811744458082 237.173 97.49999999999999 C 225.73053807796555 103.45623940362235 213.58273595234004 107.94598052002719 201.017 110.863 C 163 119.922 121.028 112.939 89.962 88.889 C 62.239 67.506 44.674 34.25 38.87 0 L 0 7.486 C 0.906 11.494 1.942 15.201 3.078 18.886 C 13.317 51.504000000000005 31.864 81.886 58.278000000000006 103.947 C 75.87571228347316 118.62794805072375 96.57385228441159 129.1266032016036 118.81500000000003 134.65299999999996 C 173.502 148.617 233.103 130.77599999999998 274.04200000000003 92.88899999999998 C 281.6781645348818 103.86475042630966 286.44256635601187 116.57887539002829 287.9 129.86999999999992 L 287.9 129.87 Z" stroke-linecap="round" />
</g>
<g transform="matrix(NaN NaN NaN NaN 0 0)"  >
<g style=""   >
</g>
</g>
<g transform="matrix(NaN NaN NaN NaN 0 0)"  >
<g style=""   >
</g>
</g>
</svg>